<svg id="visual" viewBox="0 0 960 540" width="960" height="540" xmlns="http://www.w3.org/2000/svg" xmlns:xlink="http://www.w3.org/1999/xlink" version="1.1"><rect x="0" y="0" width="960" height="540" fill="#f8fafc"></rect><defs><linearGradient id="grad1_0" x1="43.8%" y1="0%" x2="100%" y2="100%"><stop offset="14.444444444444446%" stop-color="#f8fafc" stop-opacity="1"></stop><stop offset="85.55555555555554%" stop-color="#f8fafc" stop-opacity="1"></stop></linearGradient></defs><defs><linearGradient id="grad2_0" x1="0%" y1="0%" x2="56.3%" y2="100%"><stop offset="14.444444444444446%" stop-color="#f8fafc" stop-opacity="1"></stop><stop offset="85.55555555555554%" stop-color="#f8fafc" stop-opacity="1"></stop></linearGradient></defs><g transform="translate(960, 0)"><path d="M0 351C-35.4 345.7 -70.7 340.4 -107.8 331.9C-145 323.4 -183.8 311.7 -206.3 284C-228.8 256.2 -235.1 212.4 -246.8 179.3C-258.4 146.1 -275.6 123.6 -293.9 95.5C-312.2 67.4 -331.6 33.7 -351 0L0 0Z" fill="#5e72e4"></path></g><g transform="translate(0, 540)"><path d="M0 -351C30.6 -331.1 61.3 -311.1 98.9 -304.3C136.5 -297.5 181.1 -303.9 206.3 -284C231.6 -264 237.5 -217.8 254 -184.6C270.6 -151.4 297.8 -131.2 315.8 -102.6C333.7 -74 342.3 -37 351 0L0 0Z" fill="#5e72e4"></path></g></svg>