<svg id="visual" viewBox="0 0 1920 1080" width="1920" height="1080" xmlns="http://www.w3.org/2000/svg" xmlns:xlink="http://www.w3.org/1999/xlink" version="1.1"><rect x="0" y="0" width="1920" height="1080" fill="#f8fafc"></rect><defs><linearGradient id="grad1_0" x1="43.8%" y1="0%" x2="100%" y2="100%"><stop offset="14.444444444444446%" stop-color="#f8fafc" stop-opacity="1"></stop><stop offset="85.55555555555554%" stop-color="#f8fafc" stop-opacity="1"></stop></linearGradient></defs><defs><linearGradient id="grad2_0" x1="0%" y1="0%" x2="56.3%" y2="100%"><stop offset="14.444444444444446%" stop-color="#f8fafc" stop-opacity="1"></stop><stop offset="85.55555555555554%" stop-color="#f8fafc" stop-opacity="1"></stop></linearGradient></defs><g transform="translate(1920, 0)"><path d="M0 756C-73.4 734 -146.8 711.9 -225.3 693.3C-303.7 674.7 -387.1 659.5 -444.4 611.6C-501.6 563.8 -532.7 483.3 -571.2 415C-609.7 346.7 -655.6 290.6 -687.6 223.4C-719.7 156.3 -737.8 78.1 -756 0L0 0Z" fill="#5e72e4"></path></g><g transform="translate(0, 1080)"><path d="M0 -756C80.6 -751 161.2 -746 233.6 -719C306.1 -692 370.3 -642.9 427.9 -589C485.5 -535.1 536.4 -476.4 566.3 -411.4C596.3 -346.5 605.3 -275.4 633.4 -205.8C661.5 -136.2 708.8 -68.1 756 0L0 0Z" fill="#5e72e4"></path></g></svg>