<svg id="visual" viewBox="0 0 900 600" width="900" height="600" xmlns="http://www.w3.org/2000/svg" xmlns:xlink="http://www.w3.org/1999/xlink" version="1.1"><rect x="0" y="0" width="900" height="600" fill="#fff"></rect><defs><linearGradient id="grad1_0" x1="33.3%" y1="0%" x2="100%" y2="100%"><stop offset="20%" stop-color="#ffffff" stop-opacity="1"></stop><stop offset="80%" stop-color="#ffffff" stop-opacity="1"></stop></linearGradient></defs><defs><linearGradient id="grad2_0" x1="0%" y1="0%" x2="66.7%" y2="100%"><stop offset="20%" stop-color="#ffffff" stop-opacity="1"></stop><stop offset="80%" stop-color="#ffffff" stop-opacity="1"></stop></linearGradient></defs><g transform="translate(900, 0)"><path d="M0 351.5C-24.9 346 -49.8 340.5 -77 337.3C-104.2 334.2 -133.6 333.3 -152.5 316.7C-171.5 300.1 -180 267.8 -199.5 250.2C-219 232.6 -249.4 229.8 -269.7 215.1C-290.1 200.4 -300.4 173.9 -309 148.8C-317.7 123.8 -324.7 100.2 -331.5 75.7C-338.3 51.1 -344.9 25.6 -351.5 0L0 0Z" fill="#FF0032"></path></g><g transform="translate(0, 600)"><path d="M0 -351.5C26.7 -350.8 53.4 -350 78.2 -342.7C103 -335.5 125.9 -321.7 147.5 -306.3C169.1 -291 189.4 -274 201.4 -252.5C213.4 -231 217 -205 235.3 -187.7C253.7 -170.3 286.7 -161.7 295.5 -142.3C304.4 -122.9 289.1 -92.7 294.4 -67.2C299.7 -41.7 325.6 -20.8 351.5 0L0 0Z" fill="#FF0032"></path></g></svg>