<?xml version="1.0" encoding="UTF-8"?>
<svg xmlns="http://www.w3.org/2000/svg" version="1.1" width="300" height="300" viewBox="0 0 300 300"><rect x="0" y="0" width="300" height="300" fill="#ffffff"/><g transform="scale(14.286)"><g transform="translate(0,0)"><path fill-rule="evenodd" d="M8 0L8 1L9 1L9 2L8 2L8 5L11 5L11 4L12 4L12 3L13 3L13 0L12 0L12 3L11 3L11 2L10 2L10 0ZM9 2L9 4L11 4L11 3L10 3L10 2ZM8 6L8 7L9 7L9 8L8 8L8 9L9 9L9 8L10 8L10 11L11 11L11 6L10 6L10 7L9 7L9 6ZM12 6L12 7L13 7L13 6ZM0 8L0 12L3 12L3 11L4 11L4 13L8 13L8 14L9 14L9 15L10 15L10 18L9 18L9 17L8 17L8 21L9 21L9 19L10 19L10 21L14 21L14 20L16 20L16 19L15 19L15 18L16 18L16 17L14 17L14 20L13 20L13 19L12 19L12 18L11 18L11 17L12 17L12 16L14 16L14 15L11 15L11 14L9 14L9 11L8 11L8 12L6 12L6 11L7 11L7 10L6 10L6 9L7 9L7 8L6 8L6 9L5 9L5 10L4 10L4 8ZM13 8L13 9L12 9L12 12L11 12L11 13L12 13L12 12L13 12L13 10L19 10L19 11L20 11L20 12L19 12L19 14L18 14L18 13L15 13L15 12L14 12L14 13L15 13L15 15L16 15L16 16L18 16L18 17L19 17L19 18L20 18L20 17L19 17L19 14L20 14L20 12L21 12L21 8L20 8L20 10L19 10L19 8L16 8L16 9L14 9L14 8ZM1 10L1 11L3 11L3 10ZM5 10L5 11L6 11L6 10ZM16 11L16 12L18 12L18 11ZM17 14L17 15L18 15L18 14ZM20 15L20 16L21 16L21 15ZM10 18L10 19L11 19L11 18ZM17 18L17 19L18 19L18 18ZM20 19L20 20L21 20L21 19ZM17 20L17 21L19 21L19 20ZM0 0L0 7L7 7L7 0ZM1 1L1 6L6 6L6 1ZM2 2L2 5L5 5L5 2ZM14 0L14 7L21 7L21 0ZM15 1L15 6L20 6L20 1ZM16 2L16 5L19 5L19 2ZM0 14L0 21L7 21L7 14ZM1 15L1 20L6 20L6 15ZM2 16L2 19L5 19L5 16Z" fill="#000000"/></g></g></svg>
